<?xml version="1.0" encoding="iso-8859-1"?>
<!-- Generator: Adobe Illustrator 19.0.0, SVG Export Plug-In . SVG Version: 6.00 Build 0)  -->
<svg version="1.1" id="Layer_1" xmlns="http://www.w3.org/2000/svg" xmlns:xlink="http://www.w3.org/1999/xlink" x="0px" y="0px"
	 viewBox="0 0 512.021 512.021" style="enable-background:new 0 0 512.021 512.021;" xml:space="preserve" fill="#d23878">
<g>
	<g>
		<path d="M471.19,53.898c-26.288-26.8-61.648-41.568-99.584-41.568c-35.728,0-68.848,13.104-95.792,37.92l-19.936,18.432
			L236.23,49.77c-24.736-23.84-58.672-36.976-95.584-36.976c-39.264,0-74.88,14.848-100.304,41.824
			c-53.728,57.232-53.792,148.08-0.176,206.784L256.374,499.69l215.44-238C525.606,202.81,525.446,111.658,471.19,53.898z
			 M448.15,240.154L256.342,452.042L63.83,239.866c-42.448-46.464-42.512-118.208-0.16-163.312
			C82.966,56.09,110.294,44.81,140.662,44.81c28.576,0,54.64,9.952,73.392,28.016l41.408,39.824l42.064-38.88
			c20.912-19.248,46.528-29.44,74.096-29.44c29.264,0,56.512,11.36,76.496,31.712C490.742,121.434,490.774,193.498,448.15,240.154z"
			/>
	</g>
</g>
<g>
</g>
<g>
</g>
<g>
</g>
<g>
</g>
<g>
</g>
<g>
</g>
<g>
</g>
<g>
</g>
<g>
</g>
<g>
</g>
<g>
</g>
<g>
</g>
<g>
</g>
<g>
</g>
<g>
</g>
</svg>
