<svg fill="#d23878" class="svg-icon" style="width: 1em; height: 1em;vertical-align: middle;overflow: hidden;" viewBox="0 0 1024 1024" version="1.1" xmlns="http://www.w3.org/2000/svg"><path d="M662.186667 1024h-303.786667c-30.72 0-58.026667-13.653333-78.506667-37.546667C228.693333 918.186667 136.533333 785.066667 136.533333 641.706667c0-122.88 68.266667-225.28 119.466667-300.373334C283.306667 296.96 307.2 259.413333 307.2 238.933333c0-51.2-13.653333-95.573333-23.893333-112.64-6.826667-13.653333-10.24-27.306667-10.24-40.96C273.066667 37.546667 310.613333 0 354.986667 0h314.026666C713.386667 0 750.933333 37.546667 750.933333 85.333333c0 13.653333-3.413333 30.72-10.24 40.96-10.24 17.066667-23.893333 61.44-23.893333 112.64 0 20.48 23.893333 58.026667 51.2 98.986667 51.2 75.093333 119.466667 180.906667 119.466667 300.373333 0 143.36-92.16 276.48-146.773334 344.746667-17.066667 27.306667-47.786667 40.96-78.506666 40.96z m-307.2-989.866667C327.68 34.133333 307.2 58.026667 307.2 85.333333c0 6.826667 3.413333 17.066667 6.826667 23.893334 13.653333 23.893333 27.306667 75.093333 27.306666 129.706666 0 30.72-23.893333 71.68-58.026666 119.466667-51.2 75.093333-112.64 170.666667-112.64 283.306667 0 136.533333 95.573333 273.066667 136.533333 324.266666 13.653333 13.653333 34.133333 23.893333 54.613333 23.893334h303.786667c20.48 0 37.546667-10.24 51.2-23.893334 40.96-51.2 136.533333-184.32 136.533333-324.266666 0-112.64-61.44-208.213333-112.64-283.306667C706.56 310.613333 682.666667 269.653333 682.666667 238.933333c0-54.613333 13.653333-105.813333 27.306666-129.706666 3.413333-6.826667 6.826667-17.066667 6.826667-23.893334 0-27.306667-20.48-51.2-47.786667-51.2h-314.026666z" fill="" /><path d="M348.16 948.906667c-3.413333 0-10.24-3.413333-13.653333-6.826667C296.96 894.293333 204.8 768 204.8 641.706667c0-102.4 58.026667-191.146667 105.813333-262.826667 34.133333-54.613333 64.853333-95.573333 64.853334-136.533333 0-10.24 6.826667-17.066667 17.066666-17.066667s17.066667 3.413333 17.066667 13.653333c0 51.2-30.72 98.986667-68.266667 157.013334-44.373333 68.266667-102.4 153.6-102.4 245.76 0 116.053333 85.333333 235.52 122.88 279.893333 6.826667 6.826667 3.413333 17.066667-3.413333 23.893333-3.413333 3.413333-6.826667 3.413333-10.24 3.413334z" fill="" /></svg>